<?xml version="1.0" encoding="UTF-8"?>
<svg xmlns="http://www.w3.org/2000/svg" version="1.1" viewBox="0 0 512 506">
  <defs>
    <style>
      .cls-1 {
        fill: none;
      }

      .cls-2 {
        fill: #c4a7e7;
      }
    </style>
  </defs>
  <!-- Generator: Adobe Illustrator 28.6.0, SVG Export Plug-In . SVG Version: 1.2.0 Build 709)  -->
  <g>
    <g id="Layer_1">
      <g id="Layer_1-2" data-name="Layer_1">
        <g>
          <circle class="cls-1" cx="201.6" cy="291.1" r="8.9"/>
          <circle class="cls-1" cx="100.6" cy="265.2" r="8.9"/>
          <path class="cls-1" d="M379.2,217.4c-3.1-65.3-57.1-117.4-123.2-117.4s-120.1,52.2-123.2,117.4c80.7,22.9,165.6,22.9,246.3,0h.1Z"/>
          <circle class="cls-1" cx="310.4" cy="291.1" r="8.9"/>
          <path class="cls-1" d="M394.7,216.8c.1,2.1.3,4.2.3,6.4,0,3.5-2.3,6.6-5.6,7.6-43.6,13-88.5,19.5-133.4,19.5s-89.8-6.5-133.4-19.5c-3.3-1-5.6-4.1-5.6-7.6s.2-4.3.3-6.4c-43,12.8-69.5,30.9-69.5,48.4,0,31.2,85.5,66.1,208.2,66.1s208.2-34.8,208.2-66.1-26.5-35.6-69.5-48.4h0ZM100.6,289.8c-13.6,0-24.6-11-24.6-24.6s11.1-24.6,24.6-24.6,24.6,11,24.6,24.6-11,24.6-24.6,24.6ZM201.6,315.7c-13.6,0-24.6-11-24.6-24.6s11.1-24.6,24.6-24.6,24.6,11,24.6,24.6-11.1,24.6-24.6,24.6ZM310.4,315.7c-13.6,0-24.6-11-24.6-24.6s11-24.6,24.6-24.6,24.6,11,24.6,24.6-11.1,24.6-24.6,24.6ZM411.4,289.8c-13.6,0-24.6-11-24.6-24.6s11-24.6,24.6-24.6,24.6,11,24.6,24.6-11.1,24.6-24.6,24.6Z"/>
          <circle class="cls-1" cx="411.4" cy="265.2" r="8.9"/>
          <path class="cls-2" d="M480,265.2c0-26.9-31-49.9-87.1-65.3-11.1-65.6-68.2-115.7-136.9-115.7s-125.8,50.1-136.9,115.7c-56.1,15.4-87.1,38.5-87.1,65.3s32.7,49.5,79.5,63.3l-41.4,54.7c-2.6,3.5-1.9,8.4,1.5,11,1.4,1.1,3.1,1.6,4.8,1.6s4.7-1.1,6.3-3.1l45.2-59.8c38.3,9.3,83.7,14.2,128.1,14.2s89.8-4.9,128.1-14.2l45.2,59.8c1.5,2,3.9,3.1,6.3,3.1s3.3-.5,4.8-1.6c3.5-2.6,4.2-7.6,1.5-11l-41.4-54.7c46.8-13.8,79.5-35,79.5-63.3ZM256,99.9c66,0,120.1,52.2,123.2,117.4-80.7,22.9-165.6,22.9-246.3,0,3.1-65.3,57.1-117.4,123.2-117.4h-.1ZM256,331.3c-122.7,0-208.2-34.8-208.2-66.1s26.5-35.6,69.5-48.4c0,2.1-.3,4.2-.3,6.4,0,3.5,2.3,6.6,5.6,7.6,43.6,13,88.5,19.5,133.4,19.5s89.8-6.5,133.4-19.5c3.3-1,5.6-4.1,5.6-7.6s-.2-4.3-.3-6.4c43,12.8,69.5,30.9,69.5,48.4,0,31.3-85.5,66.1-208.2,66.1Z"/>
          <path class="cls-2" d="M201.6,266.4c-13.6,0-24.6,11-24.6,24.6s11.1,24.6,24.6,24.6,24.6-11,24.6-24.6-11.1-24.6-24.6-24.6ZM201.6,299.9c-4.9,0-8.9-4-8.9-8.9s4-8.9,8.9-8.9,8.9,4,8.9,8.9-4,8.9-8.9,8.9Z"/>
          <path class="cls-2" d="M310.4,266.4c-13.6,0-24.6,11-24.6,24.6s11,24.6,24.6,24.6,24.6-11,24.6-24.6-11.1-24.6-24.6-24.6ZM310.4,299.9c-4.9,0-8.9-4-8.9-8.9s4-8.9,8.9-8.9,8.9,4,8.9,8.9-4,8.9-8.9,8.9Z"/>
          <path class="cls-2" d="M100.6,240.6c-13.6,0-24.6,11-24.6,24.6s11.1,24.6,24.6,24.6,24.6-11,24.6-24.6-11-24.6-24.6-24.6ZM100.6,274.1c-4.9,0-8.9-4-8.9-8.9s4-8.9,8.9-8.9,8.9,4,8.9,8.9-4,8.9-8.9,8.9Z"/>
          <path class="cls-2" d="M411.4,240.6c-13.6,0-24.6,11-24.6,24.6s11,24.6,24.6,24.6,24.6-11,24.6-24.6-11.1-24.6-24.6-24.6ZM411.4,274.1c-4.9,0-8.9-4-8.9-8.9s4-8.9,8.9-8.9,8.9,4,8.9,8.9-4,8.9-8.9,8.9Z"/>
        </g>
      </g>
    </g>
  </g>
</svg>