<svg xmlns="http://www.w3.org/2000/svg" xmlns:xlink="http://www.w3.org/1999/xlink" version="1.1" x="0px" y="0px" viewBox="0 0 512 640" style="enable-background:new 0 0 512 512;" xml:space="preserve"><style type="text/css">
	.st0{fill:none;}
</style><g><circle class="st0" cx="201.56" cy="307.07" r="8.87"/><circle class="st0" cx="100.61" cy="281.21" r="8.87"/><path class="st0" d="M379.16,233.36c-3.07-65.27-57.14-117.43-123.16-117.43s-120.09,52.16-123.16,117.43   C213.54,256.3,298.46,256.3,379.16,233.36z"/><circle class="st0" cx="310.44" cy="307.07" r="8.87"/><path class="st0" d="M394.74,232.82c0.1,2.14,0.33,4.25,0.33,6.41c0,3.48-2.29,6.56-5.63,7.56   c-43.64,13.02-88.54,19.54-133.43,19.54s-89.79-6.51-133.43-19.54c-3.34-1-5.63-4.08-5.63-7.56c0-2.16,0.23-4.27,0.33-6.41   c-43.03,12.77-69.51,30.88-69.51,48.39c0,31.25,85.53,66.06,208.24,66.06s208.24-34.81,208.24-66.06   C464.24,263.7,437.77,245.59,394.74,232.82z M100.61,305.84c-13.58,0-24.63-11.05-24.63-24.63s11.05-24.63,24.63-24.63   s24.63,11.05,24.63,24.63S114.19,305.84,100.61,305.84z M201.56,331.7c-13.58,0-24.63-11.05-24.63-24.63   c0-13.58,11.05-24.63,24.63-24.63c13.58,0,24.63,11.05,24.63,24.63C226.2,320.65,215.14,331.7,201.56,331.7z M310.44,331.7   c-13.58,0-24.63-11.05-24.63-24.63c0-13.58,11.05-24.63,24.63-24.63s24.63,11.05,24.63,24.63   C335.07,320.65,324.01,331.7,310.44,331.7z M411.39,305.84c-13.58,0-24.63-11.05-24.63-24.63s11.05-24.63,24.63-24.63   c13.58,0,24.63,11.05,24.63,24.63S424.97,305.84,411.39,305.84z"/><circle class="st0" cx="411.39" cy="281.21" r="8.87"/><path d="M480.01,281.21c0-26.86-31.01-49.91-87.07-65.31C381.8,150.31,324.72,100.17,256,100.17S130.2,150.31,119.06,215.9   C63,231.3,31.99,254.35,31.99,281.21c0,28.22,32.7,49.47,79.5,63.26l-41.38,54.72c-2.62,3.48-1.94,8.42,1.53,11.04   c1.42,1.08,3.09,1.6,4.75,1.6c2.39,0,4.74-1.08,6.3-3.13l45.24-59.83c38.31,9.29,83.7,14.16,128.07,14.16s89.76-4.87,128.07-14.16   l45.24,59.83c1.55,2.05,3.91,3.13,6.3,3.13c1.65,0,3.33-0.52,4.75-1.6c3.47-2.62,4.16-7.56,1.53-11.04l-41.38-54.72   C447.31,330.68,480.01,309.43,480.01,281.21z M256,115.93c66.02,0,120.09,52.16,123.16,117.43c-80.7,22.94-165.62,22.94-246.32,0   C135.91,168.09,189.98,115.93,256,115.93z M256,347.27c-122.72,0-208.24-34.81-208.24-66.06c0-17.51,26.48-35.62,69.51-48.39   c-0.1,2.14-0.33,4.25-0.33,6.41c0,3.48,2.29,6.56,5.63,7.56c43.64,13.02,88.54,19.54,133.43,19.54s89.79-6.51,133.43-19.54   c3.34-1,5.63-4.08,5.63-7.56c0-2.16-0.23-4.27-0.33-6.41c43.03,12.77,69.51,30.88,69.51,48.39   C464.24,312.46,378.72,347.27,256,347.27z"/><path d="M201.56,282.44c-13.58,0-24.63,11.05-24.63,24.63c0,13.58,11.05,24.63,24.63,24.63c13.58,0,24.63-11.05,24.63-24.63   C226.2,293.49,215.14,282.44,201.56,282.44z M201.56,315.94c-4.89,0-8.87-3.97-8.87-8.87c0-4.9,3.98-8.87,8.87-8.87   s8.87,3.97,8.87,8.87C210.43,311.97,206.45,315.94,201.56,315.94z"/><path d="M310.44,282.44c-13.58,0-24.63,11.05-24.63,24.63c0,13.58,11.05,24.63,24.63,24.63s24.63-11.05,24.63-24.63   C335.07,293.49,324.01,282.44,310.44,282.44z M310.44,315.94c-4.89,0-8.87-3.97-8.87-8.87c0-4.9,3.98-8.87,8.87-8.87   c4.89,0,8.87,3.97,8.87,8.87C319.3,311.97,315.32,315.94,310.44,315.94z"/><path d="M100.61,256.58c-13.58,0-24.63,11.05-24.63,24.63s11.05,24.63,24.63,24.63s24.63-11.05,24.63-24.63   S114.19,256.58,100.61,256.58z M100.61,290.08c-4.89,0-8.87-3.97-8.87-8.87s3.98-8.87,8.87-8.87s8.87,3.97,8.87,8.87   S105.5,290.08,100.61,290.08z"/><path d="M411.39,256.58c-13.58,0-24.63,11.05-24.63,24.63s11.05,24.63,24.63,24.63c13.58,0,24.63-11.05,24.63-24.63   S424.97,256.58,411.39,256.58z M411.39,290.08c-4.89,0-8.87-3.97-8.87-8.87s3.98-8.87,8.87-8.87c4.89,0,8.87,3.97,8.87,8.87   S416.27,290.08,411.39,290.08z"/></g><text x="0" y="527" fill="#000000" font-size="5px" font-weight="bold" font-family="'Helvetica Neue', Helvetica, Arial-Unicode, Arial, Sans-serif">Created by Creative Studio</text><text x="0" y="532" fill="#000000" font-size="5px" font-weight="bold" font-family="'Helvetica Neue', Helvetica, Arial-Unicode, Arial, Sans-serif">from the Noun Project</text></svg>