<svg xmlns="http://www.w3.org/2000/svg" xmlns:xlink="http://www.w3.org/1999/xlink" version="1.1" x="0px" y="0px" viewBox="0 0 100 125" style="enable-background:new 0 0 100 100;" xml:space="preserve"><g><path d="M55.2,59.5c-4-0.9-5.2,0.3-5.2,0.3s-1.2-1.2-5.2-0.3c-1.7,0.4-2.8,1.4-3.6,2.5c2.1,1.1,5,1.8,8.7,1.8s6.6-0.7,8.7-1.8   C58,60.9,56.9,59.9,55.2,59.5z"/><path d="M82.1,69.3C94,65.4,95,45.7,95,44.9v-9.1C95,18.8,81.2,5,64.2,5H35.8C18.8,5,5,18.8,5,35.8v9.1c0,0.8,1,20.5,12.9,24.4   c6.2,2.1,10.1,7.5,13.9,12.8C36.6,88.7,41.1,95,50,95s13.4-6.3,18.2-12.9C72,76.8,75.9,71.4,82.1,69.3z M60.2,28.8   c2.5-2.3,6.4-1.9,8.8,0.5l1.9,1.9l1.9-1.9c2.4-2.4,6.3-2.7,8.8-0.5c2.7,2.4,2.8,6.5,0.2,9c-2,2-6.9,6.9-9.4,9.4   c-0.9,0.9-2.3,0.9-3.1,0c-2.5-2.5-7.4-7.4-9.4-9.4C57.5,35.3,57.6,31.2,60.2,28.8z M30.6,47.2c-0.9,0.9-2.3,0.9-3.1,0   c-2.5-2.5-7.4-7.4-9.4-9.4c-2.5-2.5-2.4-6.6,0.2-9c2.5-2.3,6.4-1.9,8.8,0.5l1.9,1.9l1.9-1.9c2.4-2.4,6.3-2.7,8.8-0.5   c2.7,2.4,2.8,6.5,0.2,9C38,39.8,33.1,44.7,30.6,47.2z M50,66.1c-12.7,0-14.9-7.9-15.2-11.3c-0.1-0.9,0.6-1.6,1.5-1.6H50h13.8   c0.9,0,1.5,0.7,1.5,1.6C64.9,58.2,62.7,66.1,50,66.1z"/></g><text x="0" y="115" fill="#000000" font-size="5px" font-weight="bold" font-family="'Helvetica Neue', Helvetica, Arial-Unicode, Arial, Sans-serif">Created by Royyan Wijaya</text><text x="0" y="120" fill="#000000" font-size="5px" font-weight="bold" font-family="'Helvetica Neue', Helvetica, Arial-Unicode, Arial, Sans-serif">from the Noun Project</text></svg>