<?xml version="1.0" encoding="UTF-8"?>
<svg xmlns="http://www.w3.org/2000/svg" version="1.1" viewBox="0 0 128 128">
  <defs>
    <style>
      .cls-1 {
        fill: #c4a7e7;
      }
    </style>
  </defs>
  <!-- Generator: Adobe Illustrator 28.6.0, SVG Export Plug-In . SVG Version: 1.2.0 Build 709)  -->
  <g>
    <g id="Layer_1">
      <g id="Layer_1-2" data-name="Layer_1">
        <g id="Layer_1-2">
          <g>
            <path class="cls-1" d="M64,123.5c-13.1,0-19.6-9.1-25.9-17.7-4.5-6.3-8.9-12.3-15.5-14.4C5.1,85.5,4,58.4,4,57.2v-11.5C4,22.6,23.1,3.5,46.4,3.5h35.3c23.2,0,42.3,19.1,42.3,42.4v11.3c0,1.2-1.1,28.3-18.7,34.1-6.5,2.1-10.8,8.1-15.5,14.4-6.3,8.7-12.8,17.7-25.9,17.7h0ZM8,57.1c0,1.1,1.2,25.6,16,30.4,7.7,2.5,12.7,9.3,17.3,15.9,6,8.4,11.6,16.1,22.7,16.1s16.7-7.7,22.7-16c4.7-6.5,9.6-13.3,17.3-15.9,15.1-5.1,16-30.1,16-30.4v-11.3c0-21.2-17.2-38.4-38.4-38.4h-35.2c-21.2,0-38.4,17.2-38.4,38.4,0,0,0,11.2,0,11.2Z"/>
            <g>
              <path class="cls-1" d="M102.1,39.1c-3.2-2.5-9.6-6.1-18.5-2.4-8.9,3.7-11.2,10.8-11.6,14.9,0,2,.7,4,2.1,5.3,3.2,2.5,9.6,6.1,18.5,2.4,9.1-3.7,11.1-10.8,11.5-14.8.4-2.1-.4-4.1-2-5.5h0Z"/>
              <path class="cls-1" d="M25.9,39.1c3.2-2.5,9.6-6.1,18.5-2.4,8.9,3.7,11.2,10.8,11.6,14.9,0,2-.7,4-2.1,5.3-3.2,2.5-9.6,6.1-18.5,2.4-9.1-3.7-11.1-10.8-11.5-14.8-.4-2.1.4-4.1,2-5.5h0Z"/>
            </g>
            <path class="cls-1" d="M81.2,67.4h-34.4c-1.1,0-1.9.9-1.9,2,.5,4.4,3.3,14.1,19.1,14.1s18.5-9.9,18.9-14.1c0-1.1-.7-2-1.7-2ZM64,80.7c-4.7,0-8.3-.9-10.9-2.3.9-1.3,2.4-2.7,4.4-3.2,4.9-1.1,6.4.4,6.4.4,0,0,1.5-1.5,6.4-.4,2.1.4,3.5,1.7,4.4,3.2-2.4,1.3-6,2.3-10.7,2.3Z"/>
          </g>
        </g>
      </g>
    </g>
  </g>
</svg>