<svg xmlns="http://www.w3.org/2000/svg" xmlns:xlink="http://www.w3.org/1999/xlink" version="1.1" x="0px" y="0px" viewBox="0 0 100 125" style="enable-background:new 0 0 100 100;" xml:space="preserve"><g><path d="M55.2,59.5c-4-0.9-5.2,0.3-5.2,0.3s-1.2-1.2-5.2-0.3c-1.7,0.4-2.8,1.4-3.6,2.5c2.1,1.1,5,1.8,8.7,1.8   c3.8,0,6.6-0.7,8.7-1.8C58,60.9,56.9,59.9,55.2,59.5z"/><path d="M82.1,69.3c12-4,12.8-24.2,12.9-24.4l0-9.1C95,18.8,81.2,5,64.2,5H35.8C18.8,5,5,18.8,5,35.8v9.1c0,0.8,1,20.5,12.9,24.4   c6.2,2.1,10.1,7.5,13.9,12.8C36.6,88.7,41.1,95,50,95s13.4-6.3,18.2-12.9C72,76.8,75.9,71.4,82.1,69.3z M26.8,46.6   c-7.3-3-8.9-8.7-9.2-11.9c-0.2-1.6,0.5-3.2,1.8-4.2c2.5-2.1,7.7-4.9,14.9-1.9c7.3,3,8.9,8.7,9.2,11.9c0.2,1.6-0.5,3.2-1.8,4.2   C39.3,46.8,34.1,49.6,26.8,46.6z M50,66.1c-12.7,0-14.9-7.9-15.2-11.3c-0.1-0.9,0.6-1.6,1.5-1.6H50h13.8c0.9,0,1.5,0.7,1.5,1.6   C64.9,58.2,62.6,66.1,50,66.1z M58.2,44.7c-1.3-1-1.9-2.6-1.8-4.2c0.3-3.3,1.9-8.9,9.2-11.9c7.3-3,12.4-0.2,14.9,1.9   c1.3,1,1.9,2.6,1.8,4.2c-0.3,3.3-1.9,8.9-9.2,11.9C65.9,49.6,60.7,46.8,58.2,44.7z"/></g><text x="0" y="115" fill="#000000" font-size="5px" font-weight="bold" font-family="'Helvetica Neue', Helvetica, Arial-Unicode, Arial, Sans-serif">Created by Royyan Wijaya</text><text x="0" y="120" fill="#000000" font-size="5px" font-weight="bold" font-family="'Helvetica Neue', Helvetica, Arial-Unicode, Arial, Sans-serif">from the Noun Project</text></svg>