<?xml version="1.0" encoding="UTF-8"?>
<svg xmlns="http://www.w3.org/2000/svg" version="1.1" viewBox="0 0 128 128">
  <defs>
    <style>
      .cls-1 {
        fill: #c4a7e7;
      }
    </style>
  </defs>
  <!-- Generator: Adobe Illustrator 28.6.0, SVG Export Plug-In . SVG Version: 1.2.0 Build 709)  -->
  <g>
    <g id="Layer_1">
      <g id="Layer_1-2" data-name="Layer_1">
        <g id="Layer_1-2">
          <path class="cls-1" d="M106.8,89.7c16-5.3,17.1-32.3,17.2-32.5v-12.1c0-22.7-18.4-41.1-41.1-41.1h-37.9C22.4,4,4,22.4,4,45.1v12.1c0,1.1,1.3,27.3,17.2,32.5,8.3,2.8,13.5,10,18.5,17.1,6.4,8.8,12.4,17.2,24.3,17.2s17.9-8.4,24.3-17.2c5.1-7.1,10.3-14.3,18.5-17.1ZM53.1,56.9c-3.3,2.8-10.3,6.5-19.9,2.5-9.7-4-11.9-11.6-12.3-15.9-.3-2.1.7-4.3,2.4-5.6,3.3-2.8,10.3-6.5,19.9-2.5,9.7,4,11.9,11.6,12.3,15.9,0,2-.8,4.1-2.4,5.6ZM74.9,56.9c-1.7-1.3-2.5-3.5-2.4-5.6.4-4.4,2.5-11.9,12.3-15.9,9.7-4,16.5-.3,19.9,2.5,1.7,1.3,2.5,3.5,2.4,5.6-.4,4.4-2.5,11.9-12.3,15.9-9.6,4-16.5.3-19.9-2.5Z"/>
        </g>
      </g>
    </g>
  </g>
</svg>