<svg xmlns="http://www.w3.org/2000/svg" xmlns:xlink="http://www.w3.org/1999/xlink" version="1.1" x="0px" y="0px" viewBox="0 0 100 125" style="enable-background:new 0 0 100 100;" xml:space="preserve"><g><g><path d="M50,95c-9.8,0-14.7-6.8-19.4-13.3C27.2,77,23.9,72.5,19,70.9C5.8,66.5,5,46.2,5,45.3l0-8.6C5,19.3,19.3,5,36.8,5h26.5    C80.7,5,95,19.3,95,36.8v8.5c0,0.9-0.8,21.2-14,25.6c-4.9,1.6-8.1,6.1-11.6,10.8C64.7,88.2,59.8,95,50,95z M8,45.2    C8,46,8.9,64.4,20,68c5.8,1.9,9.5,7,13,11.9C37.5,86.2,41.7,92,50,92S62.5,86.2,67,80c3.5-4.9,7.2-10,13-11.9    c11.3-3.8,12-22.6,12-22.8l0-8.5C92,20.9,79.1,8,63.2,8H36.8C20.9,8,8,20.9,8,36.8V45.2z"/></g><g><g><path d="M78.6,31.7c-2.4-1.9-7.2-4.6-13.9-1.8S56.3,38,56,41.1c-0.1,1.5,0.5,3,1.6,4c2.4,1.9,7.2,4.6,13.9,1.8     c6.8-2.8,8.3-8.1,8.6-11.1C80.4,34.2,79.8,32.7,78.6,31.7z"/></g><g><path d="M21.4,31.7c2.4-1.9,7.2-4.6,13.9-1.8S43.7,38,44,41.1c0.1,1.5-0.5,3-1.6,4c-2.4,1.9-7.2,4.6-13.9,1.8     c-6.8-2.8-8.3-8.1-8.6-11.1C19.6,34.2,20.2,32.7,21.4,31.7z"/></g></g><g><path d="M62.9,52.9H50H37.1c-0.8,0-1.4,0.7-1.4,1.5C36.1,57.7,38.2,65,50,65s13.9-7.4,14.2-10.6C64.3,53.6,63.7,52.9,62.9,52.9z     M50,62.9c-3.5,0-6.2-0.7-8.2-1.7c0.7-1,1.8-2,3.3-2.4c3.7-0.8,4.8,0.3,4.8,0.3s1.1-1.1,4.8-0.3c1.6,0.3,2.6,1.3,3.3,2.4    C56.2,62.2,53.5,62.9,50,62.9z"/></g></g><text x="0" y="115" fill="#000000" font-size="5px" font-weight="bold" font-family="'Helvetica Neue', Helvetica, Arial-Unicode, Arial, Sans-serif">Created by Royyan Wijaya</text><text x="0" y="120" fill="#000000" font-size="5px" font-weight="bold" font-family="'Helvetica Neue', Helvetica, Arial-Unicode, Arial, Sans-serif">from the Noun Project</text></svg>