<?xml version="1.0" encoding="UTF-8"?>
<svg xmlns="http://www.w3.org/2000/svg" version="1.1" viewBox="0 0 128 128">
  <defs>
    <style>
      .cls-1 {
        fill: #c4a7e7;
      }
    </style>
  </defs>
  <!-- Generator: Adobe Illustrator 28.6.0, SVG Export Plug-In . SVG Version: 1.2.0 Build 709)  -->
  <g>
    <g id="Layer_1">
      <g id="Layer_1-2" data-name="Layer_1">
        <g id="Layer_1-2">
          <path class="cls-1" d="M28.9,103.5c-1.5,0-2.7,1.3-2.7,2.7s1.3,2.7,2.7,2.7,2.7-1.3,2.7-2.7-1.3-2.7-2.7-2.7ZM21.9,32.7c1.5,0,2.7-1.3,2.7-2.7s-1.3-2.7-2.7-2.7-2.7,1.3-2.7,2.7,1.3,2.7,2.7,2.7ZM51.4,22.4c1.5,0,2.7-1.3,2.7-2.7s-1.3-2.7-2.7-2.7-2.7,1.3-2.7,2.7,1.3,2.7,2.7,2.7ZM93.5,105.1c-2.2,0-4.2,1.8-4.2,4.2s1.8,4.2,4.2,4.2,4.2-1.8,4.2-4.2-1.8-4.2-4.2-4.2ZM93.5,110.8c-.7,0-1.5-.5-1.5-1.5s.5-1.5,1.5-1.5,1.5.5,1.5,1.5-.5,1.5-1.5,1.5ZM39.3,21.1c3.3,0,5.9-2.6,5.9-5.9s-2.6-5.9-5.9-5.9-5.9,2.6-5.9,5.9,2.6,5.9,5.9,5.9ZM39.3,12c1.6,0,3.1,1.5,3.1,3.1s-1.5,3.1-3.1,3.1-3.1-1.5-3.1-3.1,1.5-3.1,3.1-3.1ZM17.7,87.2c-4.6,0-8.2,3.7-8.2,8.2s3.7,8.2,8.2,8.2,8.2-3.7,8.2-8.2-3.7-8.2-8.2-8.2ZM17.7,100.9c-2.9,0-5.5-2.4-5.5-5.5s2.4-5.5,5.5-5.5,5.5,2.4,5.5,5.5-2.4,5.5-5.5,5.5ZM92,22.4c1.5,0,2.7-1.3,2.7-2.7s-1.3-2.7-2.7-2.7-2.7,1.3-2.7,2.7,1.3,2.7,2.7,2.7ZM113.3,56.8c0,1.5,1.3,2.7,2.7,2.7s2.7-1.3,2.7-2.7-1.3-2.7-2.7-2.7-2.7,1.3-2.7,2.7ZM106.7,65.6c0-3.1-.4-6.4-1.1-9.5,5.1-2.2,8.8-7.1,8.8-13.2s-6.4-14.1-14.1-14.1-7,1.5-9.5,3.7c-3.5-2.7-7.5-5.1-11.9-6.6-17.2-6.2-35.7-.4-46.7,13-10.8-2.2-22.7-.7-25.4,6.8-2.7,7.5,4,17.4,16.5,26.5,2.6,15,12.8,27.6,27.3,32.8,4.6,1.6,9.3,2.4,14.1,2.4,10.1,0,19.9-3.7,27.6-10.4h4.4c13.2,0,22.7-3.5,25.1-10.1,2.7-7.5-5.5-16.3-15.4-21.4l.4.2h0ZM100.3,31.6c6.2,0,11.3,5.1,11.3,11.3s-5.1,11.3-11.3,11.3-11.3-5.1-11.3-11.3,5.1-11.3,11.3-11.3ZM107.4,80.8c-.5,1.3-2.4,2.4-4.9,3.1.7-1.5,1.3-2.9,1.8-4.4s.9-3.1,1.3-4.6c3.1,3.1,2.2,5.1,1.8,5.9ZM77.9,28.4c4,1.5,7.7,3.5,11,6-.4.5-.7,1.1-1.1,1.6-2.7.4-7,0-12.1-1.8-6.8-2.4-11-6-11.7-8.1,4.6,0,9.3.5,13.9,2.2h0ZM47.4,30.3c4.4-2.2,9.2-3.5,13.9-4,.7,4,7,8.2,13.7,10.6,3.7,1.3,7.7,2.2,11.2,2.2s.4,0,.7,0c-.4,1.3-.5,2.6-.5,4,0,3.7,1.5,7.1,3.8,9.7-5.1,0-11.9-1.1-19.2-3.8-7.3-2.6-13.7-6-18.1-9.9-3.7-3.3-5.7-6.4-5.1-8.6,0,0-.4-.2-.4-.2ZM34.2,40.9c2.9-3.7,6.6-6.8,10.4-9.2.4,2.7,2.4,6,6.2,9.2,4.8,4,11.5,7.7,19,10.4,7.5,2.7,14.6,4,20.3,4s2,0,3.1,0c2,1.3,4.6,2,7.1,2s1.8,0,2.7-.2c.7,2.9.9,6,.9,9-2.4,5.9-18.8,7.3-39.3,0-20.5-7.3-32.4-19-30.6-24.9v-.4h.2ZM63.7,68.5c9.7,3.5,18.8,5.1,26.4,5.1s10.6-1.1,13.5-3.1c-.4,2.7-.9,5.5-2,8.2-.7,2-1.6,4-2.7,6-8.4,1.3-22.5,0-39-6-16.5-5.9-28-13.7-33.9-20.1.4-2.2.9-4.2,1.6-6.4.9-2.7,2.2-5.3,3.7-7.7,2,8.1,14.6,17.6,32.2,24h.2ZM25.2,51.3c-.5,1.5-.9,3.1-1.3,4.6-1.6-2.2-2.2-4.2-1.8-5.5.2-.7.7-2.9,5.1-3.5-.7,1.5-1.3,2.9-1.8,4.4h-.2ZM51.6,102.4c-7.3-2.6-13.5-7.3-18.1-13.4,5.1,3.8,11.7,7.3,19.2,10.1,7.5,2.7,15,4.2,21.2,4.4-7.3,1.8-15.2,1.5-22.5-1.1,0,0,.2,0,.2,0ZM83.4,100c-6.6,2-18.3.7-29.8-3.5-11.5-4.2-21.4-10.4-25.3-16.3-.7-1.8-1.3-3.7-1.8-5.7,8.1,5.5,18.1,10.4,29.3,14.5h.4c11.3,4.2,22.5,6.6,32.2,7.7-1.6,1.3-3.3,2.4-4.9,3.3h-.1ZM119.5,86.1c-3.8,11-32.2,11.2-61.9.7h-.4C27.4,76,5.6,57.7,9.5,46.7c2-5.7,11.9-7,20.9-5.3-.5.9-1.3,1.8-1.8,2.7-6.4,0-8.6,3.1-9.3,5.7-2,8.4,16.5,23.2,39.7,31.5,12.1,4.4,24.2,6.4,33.7,6.4s15.2-1.8,17-5.7c1.1-2.4,1.3-6-3.7-10.2,0-1.1.4-2.2.4-3.3,8.1,4.4,14.8,11.7,12.8,17.4l.4.2h-.1Z"/>
        </g>
      </g>
    </g>
  </g>
</svg>