<svg xmlns="http://www.w3.org/2000/svg" xmlns:xlink="http://www.w3.org/1999/xlink" version="1.1" x="0px" y="0px" viewBox="0 0 100 125" enable-background="new 0 0 100 100" xml:space="preserve"><path d="M57.6,48.664c0,3.453,2.811,6.263,6.266,6.263c3.453,0,6.263-2.81,6.263-6.263s-2.81-6.263-6.263-6.263  C60.41,42.401,57.6,45.211,57.6,48.664z M68.628,48.664c0,2.626-2.137,4.763-4.763,4.763c-2.628,0-4.766-2.137-4.766-4.763  s2.138-4.763,4.766-4.763C66.491,43.901,68.628,46.038,68.628,48.664z M52.119,43.15c0-4.616-3.756-8.372-8.374-8.372  c-4.616,0-8.372,3.756-8.372,8.372c0,4.618,3.756,8.374,8.372,8.374C48.363,51.524,52.119,47.768,52.119,43.15z M43.745,50.024  c-3.789,0-6.872-3.083-6.872-6.874c0-3.789,3.083-6.872,6.872-6.872c3.791,0,6.874,3.083,6.874,6.872  C50.619,46.941,47.536,50.024,43.745,50.024z M51.1,26.695c-12.648,0-22.938,10.29-22.938,22.938  c0,12.647,10.29,22.938,22.938,22.938c12.647,0,22.938-10.29,22.938-22.938C74.037,36.985,63.747,26.695,51.1,26.695z M51.1,71.07  c-11.821,0-21.438-9.617-21.438-21.438c0-11.821,9.617-21.438,21.438-21.438c11.82,0,21.438,9.617,21.438,21.438  C72.537,61.453,62.92,71.07,51.1,71.07z M59.253,39.186c1.244,0,2.256-1.012,2.256-2.256c0-1.245-1.012-2.258-2.256-2.258  s-2.257,1.013-2.257,2.258C56.996,38.173,58.009,39.186,59.253,39.186z M59.253,36.172c0.417,0,0.756,0.34,0.756,0.758  c0,0.417-0.339,0.756-0.756,0.756s-0.757-0.339-0.757-0.756C58.496,36.512,58.836,36.172,59.253,36.172z M34.535,68.976  c-0.818,0-1.484,0.666-1.484,1.484s0.666,1.484,1.484,1.484s1.484-0.666,1.484-1.484S35.354,68.976,34.535,68.976z M28.102,66.415  c-1.244,0-2.256,1.013-2.256,2.257s1.012,2.256,2.256,2.256s2.256-1.012,2.256-2.256S29.345,66.415,28.102,66.415z M28.102,69.428  c-0.417,0-0.756-0.339-0.756-0.756s0.339-0.757,0.756-0.757s0.756,0.34,0.756,0.757S28.519,69.428,28.102,69.428z M26.898,39.169  c0-0.818-0.666-1.483-1.484-1.483s-1.484,0.666-1.484,1.483s0.666,1.483,1.484,1.483S26.898,39.987,26.898,39.169z M36.035,29.393  c0.818,0,1.484-0.666,1.484-1.484s-0.666-1.484-1.484-1.484c-0.817,0-1.482,0.666-1.482,1.484S35.218,29.393,36.035,29.393z   M30.121,31.67c1.244,0,2.256-1.012,2.256-2.256s-1.012-2.256-2.256-2.256s-2.256,1.012-2.256,2.256S28.877,31.67,30.121,31.67z   M30.121,28.658c0.417,0,0.756,0.339,0.756,0.756s-0.339,0.756-0.756,0.756s-0.756-0.339-0.756-0.756S29.704,28.658,30.121,28.658z   M38.295,55.213c-1.413,0-2.562,1.148-2.562,2.561s1.149,2.561,2.562,2.561c1.412,0,2.561-1.148,2.561-2.561  S39.707,55.213,38.295,55.213z M38.295,58.834c-0.585,0-1.062-0.476-1.062-1.061s0.476-1.061,1.062-1.061  c0.585,0,1.061,0.476,1.061,1.061S38.88,58.834,38.295,58.834z M72.867,34.545c1.767,0,3.203-1.437,3.203-3.203  c0-1.767-1.437-3.204-3.203-3.204s-3.204,1.438-3.204,3.204C69.663,33.108,71.101,34.545,72.867,34.545z M72.867,29.638  c0.939,0,1.703,0.765,1.703,1.704c0,0.939-0.764,1.703-1.703,1.703s-1.704-0.764-1.704-1.703  C71.163,30.402,71.928,29.638,72.867,29.638z M50.642,60.258c-2.458,0-4.458,2-4.458,4.459c0,2.458,2,4.458,4.458,4.458  s4.458-2,4.458-4.458C55.1,62.258,53.1,60.258,50.642,60.258z M50.642,67.675c-1.631,0-2.958-1.327-2.958-2.958  c0-1.632,1.327-2.959,2.958-2.959s2.958,1.327,2.958,2.959C53.6,66.348,52.272,67.675,50.642,67.675z M73.961,35.444  c-0.818,0-1.484,0.666-1.484,1.484s0.666,1.484,1.484,1.484s1.484-0.666,1.484-1.484S74.779,35.444,73.961,35.444z M64.598,71.07  c-0.818,0-1.484,0.666-1.484,1.484s0.666,1.484,1.484,1.484s1.484-0.666,1.484-1.484S65.416,71.07,64.598,71.07z M71.882,68.976  c-0.818,0-1.484,0.666-1.484,1.484s0.666,1.484,1.484,1.484s1.484-0.666,1.484-1.484S72.7,68.976,71.882,68.976z M66.066,28.93  c0.818,0,1.484-0.666,1.484-1.484s-0.666-1.484-1.484-1.484s-1.484,0.666-1.484,1.484S65.248,28.93,66.066,28.93z M49.24,33.383  c0.818,0,1.484-0.666,1.484-1.484s-0.666-1.484-1.484-1.484s-1.484,0.666-1.484,1.484S48.422,33.383,49.24,33.383z M54.35,50.754  c-0.818,0-1.484,0.666-1.484,1.484s0.666,1.484,1.484,1.484s1.484-0.666,1.484-1.484S55.168,50.754,54.35,50.754z M33.066,48.883  c-0.818,0-1.484,0.666-1.484,1.484s0.666,1.484,1.484,1.484s1.484-0.666,1.484-1.484S33.885,48.883,33.066,48.883z M62.415,61.721  c-0.818,0-1.484,0.666-1.484,1.484s0.666,1.484,1.484,1.484s1.484-0.666,1.484-1.484S63.233,61.721,62.415,61.721z"/><text x="0" y="115" fill="#000000" font-size="5px" font-weight="bold" font-family="'Helvetica Neue', Helvetica, Arial-Unicode, Arial, Sans-serif">Created by Sergey Demushkin</text><text x="0" y="120" fill="#000000" font-size="5px" font-weight="bold" font-family="'Helvetica Neue', Helvetica, Arial-Unicode, Arial, Sans-serif">from the Noun Project</text></svg>