<svg xmlns="http://www.w3.org/2000/svg" xmlns:xlink="http://www.w3.org/1999/xlink" version="1.1" x="0px" y="0px" viewBox="0 0 100 125" enable-background="new 0 0 100 100" xml:space="preserve"><path d="M30.585,72.965c-0.818,0-1.484,0.666-1.484,1.484c0,0.817,0.666,1.482,1.484,1.482s1.484-0.665,1.484-1.482  C32.069,73.631,31.403,72.965,30.585,72.965z M26.801,34.307c0.818,0,1.484-0.666,1.484-1.483c0-0.818-0.666-1.484-1.484-1.484  s-1.484,0.666-1.484,1.484C25.317,33.642,25.983,34.307,26.801,34.307z M42.872,28.691c0.818,0,1.484-0.666,1.484-1.483  c0-0.818-0.666-1.484-1.484-1.484s-1.484,0.666-1.484,1.484C41.387,28.025,42.053,28.691,42.872,28.691z M65.876,73.939  c-1.244,0-2.256,1.012-2.256,2.256s1.012,2.256,2.256,2.256s2.256-1.012,2.256-2.256S67.12,73.939,65.876,73.939z M65.876,76.951  c-0.417,0-0.756-0.339-0.756-0.756s0.339-0.756,0.756-0.756s0.756,0.339,0.756,0.756S66.293,76.951,65.876,76.951z M36.273,27.957  c1.766,0,3.203-1.438,3.203-3.204s-1.437-3.204-3.203-3.204s-3.203,1.438-3.203,3.204S34.507,27.957,36.273,27.957z M36.273,23.048  c0.939,0,1.703,0.765,1.703,1.704s-0.764,1.704-1.703,1.704s-1.703-0.765-1.703-1.704S35.334,23.048,36.273,23.048z M24.522,64.146  c-2.458,0-4.457,2-4.457,4.459c0,2.458,2,4.457,4.457,4.457c2.458,0,4.459-1.999,4.459-4.457  C28.981,66.146,26.981,64.146,24.522,64.146z M24.522,71.563c-1.63,0-2.957-1.326-2.957-2.957c0-1.632,1.327-2.959,2.957-2.959  c1.631,0,2.959,1.327,2.959,2.959C27.481,70.236,26.154,71.563,24.522,71.563z M65.143,28.69c0.818,0,1.484-0.666,1.484-1.483  s-0.666-1.483-1.484-1.483s-1.484,0.666-1.484,1.483S64.324,28.69,65.143,28.69z M76.655,47.467c0,0.818,0.665,1.484,1.482,1.484  c0.818,0,1.484-0.666,1.484-1.484s-0.666-1.484-1.484-1.484C77.32,45.983,76.655,46.649,76.655,47.467z M73.128,52.285  c0.003-1.733-0.193-3.461-0.585-5.16c2.83-1.155,4.831-3.933,4.831-7.173c0-4.272-3.476-7.748-7.748-7.748  c-2.015,0-3.847,0.779-5.226,2.044c-1.931-1.527-4.094-2.773-6.479-3.625c-9.385-3.354-19.536-0.195-25.503,7.121  c-5.861-1.235-12.389-0.369-13.858,3.744c-1.455,4.072,2.197,9.462,9.018,14.468c1.363,8.228,7.048,15.059,14.909,17.866  c2.523,0.902,5.134,1.342,7.726,1.342c5.485,0,10.873-1.98,15.129-5.714c0.825,0.043,1.63,0.065,2.41,0.065  c7.212,0,12.423-1.87,13.735-5.544C82.957,59.857,78.449,55.043,73.128,52.285z M69.626,33.704c3.445,0,6.248,2.803,6.248,6.248  S73.071,46.2,69.626,46.2s-6.248-2.803-6.248-6.248S66.181,33.704,69.626,33.704z M73.492,60.632  c-0.339,0.707-1.281,1.293-2.715,1.697c0.381-0.779,0.734-1.573,1.026-2.39c0.295-0.826,0.524-1.664,0.722-2.505  C74.202,59.145,73.682,60.238,73.492,60.632z M57.418,32.035c2.198,0.785,4.194,1.929,5.979,3.328  c-0.206,0.279-0.4,0.568-0.567,0.874c-1.477,0.191-3.817-0.035-6.552-1.013c-3.729-1.331-6.014-3.278-6.444-4.433  C52.349,30.744,54.912,31.139,57.418,32.035z M40.685,33.032c2.371-1.176,4.954-1.916,7.621-2.157  c0.414,2.182,3.819,4.458,7.469,5.761c2.048,0.732,4.235,1.18,6.062,1.18c0.127,0,0.232-0.023,0.355-0.027  c-0.2,0.687-0.313,1.412-0.313,2.163c0,2.035,0.794,3.883,2.081,5.267c-2.844-0.021-6.486-0.643-10.509-2.08  c-3.97-1.419-7.495-3.349-9.926-5.435C41.477,35.946,40.447,34.229,40.685,33.032z M33.467,38.835  c1.61-2.009,3.551-3.693,5.717-4.989c0.192,1.532,1.333,3.252,3.364,4.996c2.566,2.202,6.26,4.229,10.399,5.708  c4.083,1.459,7.976,2.176,11.128,2.176c0.586,0,1.138-0.031,1.666-0.082c1.145,0.667,2.469,1.055,3.886,1.055  c0.505,0,0.997-0.052,1.476-0.145c0.367,1.627,0.544,3.281,0.525,4.94c-1.279,3.184-10.349,3.96-21.509-0.025  C38.93,48.471,32.4,42.102,33.467,38.835z M49.613,53.882c5.298,1.893,10.342,2.823,14.405,2.823c3.221,0,5.818-0.59,7.44-1.746  c-0.194,1.509-0.542,3.009-1.066,4.477c-0.403,1.13-0.914,2.223-1.498,3.267c-4.644,0.655-12.306-0.063-21.268-3.266  c-8.964-3.204-15.345-7.504-18.52-10.953c0.209-1.175,0.507-2.343,0.911-3.475c0.534-1.495,1.223-2.891,2.034-4.184  C33.185,45.183,40.076,50.474,49.613,53.882z M28.604,44.504c-0.292,0.817-0.521,1.655-0.719,2.498  c-0.853-1.221-1.209-2.271-1.024-3.032c0.103-0.424,0.385-1.589,2.756-1.856C29.241,42.884,28.899,43.679,28.604,44.504z   M42.991,72.409c-4.016-1.435-7.417-3.998-9.892-7.277c2.754,2.071,6.427,4.002,10.538,5.471c4.115,1.47,8.18,2.301,11.625,2.445  C51.268,74.018,47.009,73.846,42.991,72.409z M60.437,71.052c-3.6,1.122-9.975,0.396-16.294-1.861  c-6.309-2.254-11.697-5.728-13.779-8.876c-0.409-1.004-0.748-2.043-1.004-3.114c4.394,2.953,9.859,5.718,15.994,7.928l0.214,0.078  c6.226,2.225,12.284,3.569,17.617,4.074C62.308,69.946,61.389,70.535,60.437,71.052z M80.075,63.467  c-2.134,5.969-17.581,6.144-33.792,0.402l-0.213-0.077c-16.289-5.82-28.24-15.803-26.098-21.8c1.115-3.12,6.515-3.801,11.443-2.92  c-0.338,0.482-0.659,0.979-0.961,1.492c-3.548,0.065-4.715,1.673-5.05,3.052c-1.128,4.643,9.02,12.695,21.717,17.232  c6.577,2.351,13.223,3.538,18.389,3.538c4.808-0.001,8.336-1.029,9.334-3.105c0.615-1.28,0.739-3.268-1.982-5.57  c0.09-0.586,0.158-1.173,0.202-1.761C77.438,56.393,81.189,60.347,80.075,63.467z"/><text x="0" y="115" fill="#000000" font-size="5px" font-weight="bold" font-family="'Helvetica Neue', Helvetica, Arial-Unicode, Arial, Sans-serif">Created by Sergey Demushkin</text><text x="0" y="120" fill="#000000" font-size="5px" font-weight="bold" font-family="'Helvetica Neue', Helvetica, Arial-Unicode, Arial, Sans-serif">from the Noun Project</text></svg>