<svg xmlns="http://www.w3.org/2000/svg" xmlns:xlink="http://www.w3.org/1999/xlink" version="1.1" x="0px" y="0px" viewBox="0 0 100 125" enable-background="new 0 0 100 100" xml:space="preserve"><path d="M32.574,29.789c0.455,0,0.912-0.057,1.358-0.17c1.427-0.362,2.627-1.258,3.38-2.524c0.753-1.265,0.968-2.748,0.605-4.174  c-0.62-2.449-2.814-4.159-5.337-4.159c-0.457,0-0.915,0.057-1.36,0.17c-1.428,0.362-2.628,1.258-3.381,2.523  s-0.968,2.748-0.606,4.176C27.854,28.079,30.05,29.789,32.574,29.789z M29.127,22.222c0.548-0.92,1.422-1.573,2.461-1.836  c0.326-0.083,0.659-0.125,0.992-0.125c1.835,0,3.432,1.245,3.883,3.027c0.264,1.039,0.107,2.118-0.44,3.039  c-0.548,0.921-1.422,1.573-2.46,1.836c-0.325,0.082-0.658,0.124-0.989,0.124c-1.836,0-3.435-1.245-3.887-3.027  C28.423,24.222,28.58,23.143,29.127,22.222z M76.517,50.356c0.034-2.521-1.548-4.928-4.557-6.982  c-0.003-0.008-0.007-0.017-0.009-0.025c-0.145-0.475-0.307-0.941-0.48-1.402c-0.109-0.292-0.224-0.58-0.345-0.867  c-0.16-0.378-0.331-0.75-0.511-1.117c-0.042-0.086-0.076-0.176-0.119-0.261c0.753-3.506,0.276-6.38-1.495-8.2  c-1.754-1.804-4.568-2.388-8.141-1.718c-2.178-1.174-4.535-1.98-6.998-2.395c-0.035-0.006-0.069-0.012-0.104-0.018  c-0.304-0.05-0.609-0.092-0.916-0.129c-0.095-0.012-0.189-0.025-0.285-0.035c-0.257-0.028-0.515-0.05-0.772-0.07  c-0.143-0.011-0.284-0.023-0.428-0.032c-0.226-0.013-0.452-0.02-0.679-0.026c-0.123-0.003-0.245-0.013-0.369-0.014l-0.284-0.002  c-0.009,0-0.018,0-0.027,0c-0.006,0-0.013,0.001-0.019,0.001c-0.697,0-1.387,0.037-2.069,0.099  c-0.069,0.006-0.139,0.009-0.208,0.016c-0.61,0.062-1.21,0.153-1.806,0.263c-0.196,0.035-0.392,0.071-0.587,0.111  c-0.458,0.096-0.911,0.21-1.359,0.334c-0.434,0.118-0.86,0.253-1.285,0.396c-0.204,0.069-0.408,0.139-0.609,0.214  c-2.975,1.098-5.721,2.795-8.055,5.067c-1.88,1.831-3.356,3.916-4.471,6.139c-0.139,0.272-0.27,0.549-0.397,0.827  c-0.145,0.319-0.285,0.639-0.415,0.963c-0.169,0.419-0.328,0.843-0.473,1.274c-3.08,1.976-4.729,4.352-4.761,6.877  c-0.034,2.526,1.597,4.942,4.552,6.971c0.38,1.266,0.869,2.493,1.463,3.674c-0.774,3.563-0.259,6.402,1.5,8.209  c1.29,1.324,3.166,1.981,5.462,1.981c0.834,0,1.729-0.098,2.666-0.271c0.577,0.312,1.167,0.597,1.769,0.856  c0.019,0.008,0.037,0.017,0.055,0.024c0.661,0.284,1.336,0.534,2.022,0.754c0.026,0.008,0.051,0.018,0.077,0.025  c0.677,0.215,1.366,0.395,2.063,0.545c0.039,0.009,0.078,0.019,0.117,0.027c0.685,0.144,1.379,0.254,2.081,0.335  c0.055,0.007,0.11,0.015,0.166,0.021c0.689,0.075,1.386,0.117,2.088,0.13c0.043,0.001,0.084,0.007,0.127,0.008l0.256,0.002  c0.019,0,0.037,0.001,0.055,0.001c0.012,0,0.023-0.002,0.035-0.002c0.69-0.001,1.372-0.036,2.048-0.098  c0.072-0.007,0.145-0.01,0.217-0.017c0.611-0.062,1.214-0.154,1.811-0.264c0.185-0.033,0.368-0.065,0.551-0.104  c0.474-0.099,0.94-0.217,1.403-0.345c0.41-0.112,0.814-0.24,1.218-0.375c0.229-0.077,0.456-0.154,0.681-0.238  c2.968-1.099,5.706-2.794,8.035-5.062c2.42-2.354,4.229-5.161,5.402-8.223c0.046-0.12,0.09-0.241,0.135-0.361  c0.074-0.204,0.158-0.403,0.227-0.608C74.734,55.325,76.481,52.961,76.517,50.356z M27.468,54.309  c-1.626-1.447-2.506-3.03-2.484-4.645c0.024-1.866,1.233-3.407,2.612-4.566c-0.327,1.484-0.51,3.02-0.531,4.593  C27.043,51.259,27.184,52.803,27.468,54.309z M67.927,32.547c1.107,1.138,1.552,2.891,1.373,5.05  c-0.105-0.163-0.227-0.316-0.336-0.477c-0.233-0.343-0.476-0.678-0.728-1.007c-0.189-0.249-0.384-0.494-0.584-0.736  c-0.301-0.362-0.612-0.714-0.934-1.057c-0.099-0.105-0.184-0.219-0.284-0.322c-1.087-1.116-2.266-2.107-3.52-2.966  C64.717,30.928,66.634,31.219,67.927,32.547z M29.349,55.717c-0.878-3.193-0.997-6.546-0.376-9.783  c0.022-0.113,0.034-0.23,0.058-0.344c0.075-0.36,0.182-0.713,0.276-1.069c0.092-0.345,0.171-0.694,0.28-1.032  c0.043-0.136,0.101-0.269,0.147-0.404c2.66-7.719,9.615-13.481,17.953-14.39c0.054-0.006,0.107-0.018,0.161-0.023  c0.708-0.072,1.424-0.109,2.149-0.109h0.014c0.366,0,0.724,0.036,1.086,0.054c0.42,0.021,0.842,0.035,1.255,0.081  c0.254,0.027,0.502,0.077,0.754,0.113c0.475,0.069,0.95,0.136,1.413,0.236c0.155,0.033,0.306,0.08,0.459,0.117  c0.555,0.132,1.106,0.272,1.644,0.447c0.046,0.015,0.09,0.034,0.136,0.049c5.243,1.745,9.58,5.46,12.149,10.255  c-0.479,1.927-1.353,4.071-2.606,6.335c-0.587-0.252-1.223-0.404-1.893-0.404c-0.398,0-0.798,0.05-1.188,0.149  c-2.571,0.652-4.133,3.276-3.48,5.848c0.203,0.801,0.599,1.511,1.13,2.085c-1.088,1.267-2.238,2.51-3.451,3.69  c-1.056,1.027-2.148,1.985-3.25,2.905c-1.406,0.09-2.845,0.129-4.309,0.108c-2.132-0.028-4.243-0.173-6.274-0.43  c-2.796-0.351-5.425-0.905-7.814-1.648C33.216,57.759,31.052,56.794,29.349,55.717z M67.613,49.843  c0.448,1.77-0.626,3.577-2.396,4.025c-1.758,0.444-3.585-0.66-4.026-2.396c-0.448-1.77,0.626-3.576,2.396-4.025  c0.269-0.068,0.544-0.103,0.818-0.103C65.922,47.344,67.24,48.372,67.613,49.843z M32.074,67.451  c-1.3-1.334-1.537-3.272-1.383-5.062c0.378,0.588,0.791,1.156,1.225,1.711c0.038,0.048,0.068,0.099,0.106,0.146  c0.482,0.606,0.995,1.192,1.542,1.755c0.007,0.007,0.015,0.013,0.021,0.02c0.515,0.528,1.052,1.026,1.606,1.497  c0.019,0.017,0.037,0.034,0.057,0.051c0.56,0.472,1.141,0.913,1.737,1.326c0.019,0.014,0.037,0.027,0.056,0.04  c0.021,0.015,0.042,0.03,0.062,0.045C34.936,69.104,33.198,68.606,32.074,67.451z M39.43,68.646  c-0.229-0.13-0.449-0.274-0.673-0.413c-0.284-0.176-0.576-0.337-0.852-0.527c-0.436-0.299-0.853-0.631-1.268-0.964  c-0.137-0.109-0.282-0.205-0.417-0.318c-0.547-0.461-1.075-0.951-1.581-1.471c-0.514-0.528-0.996-1.077-1.445-1.643  c-0.015-0.02-0.027-0.04-0.042-0.059c-1.323-1.68-2.36-3.51-3.108-5.427c1.529,0.812,3.293,1.541,5.281,2.158  c2.473,0.77,5.189,1.344,8.072,1.705c2.086,0.264,4.253,0.412,6.441,0.441c0.28,0.004,0.555,0.006,0.833,0.006  c0.509,0,1.014-0.008,1.515-0.021c-2.062,1.563-4.145,2.912-6.199,3.993C43.614,67.355,41.399,68.204,39.43,68.646z M52.345,71.301  c-0.063,0.007-0.125,0.021-0.188,0.027c-0.707,0.071-1.423,0.108-2.146,0.108h-0.031c-0.395-0.001-0.783-0.037-1.174-0.059  c-0.371-0.02-0.744-0.029-1.111-0.068c-0.326-0.035-0.645-0.096-0.968-0.146c-0.38-0.058-0.763-0.105-1.138-0.184  c-0.299-0.062-0.589-0.149-0.884-0.225c-0.388-0.098-0.779-0.187-1.16-0.306c-0.279-0.088-0.549-0.201-0.824-0.3  c-0.383-0.139-0.771-0.268-1.145-0.427c-0.054-0.023-0.105-0.054-0.159-0.077c1.657-0.507,3.423-1.24,5.267-2.21  c2.296-1.208,4.622-2.724,6.913-4.503c0.383-0.297,0.758-0.625,1.137-0.937c5.936-0.407,11.136-1.698,14.967-3.59  C66.703,65.363,60.124,70.442,52.345,71.301z M70.49,56.231c-3.308,1.97-8.18,3.438-13.771,4.066  c0.586-0.526,1.173-1.052,1.743-1.606c1.261-1.228,2.457-2.521,3.588-3.838c0.7,0.393,1.503,0.617,2.35,0.617  c0.397,0,0.796-0.05,1.186-0.148c2.571-0.652,4.134-3.275,3.481-5.848c-0.246-0.972-0.786-1.799-1.498-2.425  c0.99-1.779,1.758-3.487,2.3-5.095c0.513,1.261,0.906,2.582,1.172,3.947c0.005,0.023,0.013,0.046,0.017,0.07  c0.114,0.598,0.191,1.209,0.254,1.823c0.011,0.107,0.034,0.211,0.043,0.319c0.062,0.707,0.089,1.423,0.08,2.147  c0,0.009,0.001,0.017,0.001,0.026C71.407,52.352,71.07,54.344,70.49,56.231z M72.416,54.883c0.03-0.143,0.049-0.288,0.077-0.432  c0.116-0.582,0.214-1.171,0.285-1.768c0.009-0.078,0.016-0.156,0.024-0.233c0.076-0.705,0.123-1.419,0.133-2.141  c0,0,0-0.001,0-0.001v-0.001c0.01-0.733-0.019-1.459-0.077-2.176c-0.004-0.047-0.005-0.095-0.009-0.143  c-0.058-0.665-0.149-1.321-0.264-1.969c-0.018-0.102-0.03-0.204-0.049-0.305c1.351,1.201,2.505,2.765,2.479,4.621  C74.995,51.963,74.056,53.508,72.416,54.883z M23.357,58.683c-0.321,0.234-0.53,0.58-0.59,0.973c-0.06,0.392,0.036,0.782,0.269,1.1  c0.279,0.382,0.727,0.609,1.199,0.609c0.316,0,0.619-0.099,0.875-0.286c0.32-0.233,0.53-0.578,0.591-0.971  c0.061-0.392-0.035-0.784-0.269-1.104C24.966,58.367,23.995,58.213,23.357,58.683z M54.56,35.202c0.315,0,0.618-0.099,0.874-0.286  c0.661-0.482,0.807-1.412,0.323-2.076c-0.467-0.634-1.436-0.788-2.075-0.32c-0.32,0.234-0.529,0.579-0.59,0.971  c-0.061,0.392,0.035,0.784,0.268,1.102C53.639,34.974,54.087,35.202,54.56,35.202z M44.231,57.699c0.353,0,0.694-0.126,0.961-0.354  c0.624-0.529,0.7-1.468,0.168-2.095c-0.511-0.599-1.491-0.679-2.093-0.165c-0.302,0.258-0.485,0.617-0.517,1.013  c-0.031,0.395,0.094,0.778,0.35,1.077C43.383,57.509,43.795,57.699,44.231,57.699z M74.438,39.022c0.269,0,0.532-0.073,0.764-0.212  c0.7-0.421,0.929-1.334,0.509-2.038c-0.406-0.675-1.372-0.909-2.034-0.508c-0.342,0.204-0.582,0.527-0.679,0.912  c-0.097,0.384-0.037,0.783,0.166,1.124C73.432,38.746,73.92,39.022,74.438,39.022z M74.836,61.118  c-0.549,0.249-0.969,0.696-1.181,1.26s-0.191,1.177,0.058,1.727c0.365,0.804,1.172,1.323,2.055,1.323  c0.323,0,0.636-0.067,0.931-0.201c0.549-0.249,0.968-0.696,1.18-1.261s0.191-1.177-0.058-1.726  C77.323,61.142,75.942,60.614,74.836,61.118z M76.474,63.438c-0.07,0.188-0.211,0.338-0.396,0.422c-0.37,0.17-0.832-0.008-1-0.376  c-0.083-0.185-0.09-0.39-0.019-0.578s0.212-0.339,0.396-0.422c0.1-0.045,0.204-0.068,0.312-0.068c0.296,0,0.565,0.174,0.688,0.443  C76.538,63.044,76.545,63.249,76.474,63.438z M79.103,29.131c-0.698-1.163-2.342-1.578-3.513-0.879  c-0.587,0.352-1.002,0.912-1.168,1.575c-0.166,0.664-0.063,1.353,0.288,1.939c0.46,0.768,1.303,1.245,2.198,1.245  c0.463,0,0.917-0.126,1.314-0.365c0.587-0.351,1.002-0.91,1.169-1.574C79.558,30.409,79.455,29.719,79.103,29.131z M77.937,30.708  c-0.069,0.275-0.241,0.506-0.484,0.652c-0.492,0.294-1.163,0.122-1.456-0.365c-0.146-0.243-0.188-0.528-0.119-0.803  c0.068-0.275,0.241-0.506,0.483-0.652c0.165-0.099,0.354-0.151,0.544-0.151c0.377,0,0.719,0.193,0.912,0.516  C77.963,30.147,78.005,30.433,77.937,30.708z M40.563,53.421c0.736-0.628,1.185-1.505,1.261-2.472  c0.077-0.966-0.227-1.903-0.855-2.639c-0.689-0.809-1.695-1.272-2.759-1.272c-0.861,0-1.696,0.308-2.353,0.867  c-1.517,1.299-1.699,3.59-0.405,5.11c0.691,0.809,1.697,1.273,2.761,1.273C39.074,54.288,39.908,53.979,40.563,53.421z   M36.594,52.041c-0.758-0.89-0.65-2.234,0.238-2.996c0.385-0.328,0.874-0.508,1.378-0.508c0.624,0,1.213,0.271,1.618,0.746  c0.368,0.432,0.546,0.981,0.501,1.548c-0.045,0.566-0.308,1.08-0.739,1.448C38.731,53.015,37.327,52.899,36.594,52.041z"/><text x="0" y="115" fill="#000000" font-size="5px" font-weight="bold" font-family="'Helvetica Neue', Helvetica, Arial-Unicode, Arial, Sans-serif">Created by Sergey Demushkin</text><text x="0" y="120" fill="#000000" font-size="5px" font-weight="bold" font-family="'Helvetica Neue', Helvetica, Arial-Unicode, Arial, Sans-serif">from the Noun Project</text></svg>