<?xml version="1.0" encoding="UTF-8"?>
<svg xmlns="http://www.w3.org/2000/svg" version="1.1" viewBox="0 0 128 128">
  <defs>
    <style>
      .cls-1 {
        fill: #c4a7e7;
      }
    </style>
  </defs>
  <!-- Generator: Adobe Illustrator 28.6.0, SVG Export Plug-In . SVG Version: 1.2.0 Build 709)  -->
  <g>
    <g id="Layer_1">
      <g id="Layer_1-2" data-name="Layer_1">
        <g id="Layer_1-2">
          <path class="cls-1" d="M8.8,98c-3.2,0-6,2.5-6,6s2.5,6,6,6,6-2.5,6-6-2.5-6-6-6ZM8.8,106.5c-1.4,0-2.5-1.1-2.5-2.5s1.1-2.5,2.5-2.5,2.5,1.1,2.5,2.5-1.1,2.5-2.5,2.5ZM19.6,22.8c4.6,0,8.3-3.7,8.3-8.3s-3.7-8.3-8.3-8.3-8.3,3.7-8.3,8.3,3.7,8.3,8.3,8.3ZM19.6,9.4c2.8,0,4.8,2.3,4.8,4.8s-2.3,4.8-4.8,4.8-4.8-2.3-4.8-4.8,2.3-4.8,4.8-4.8ZM77.8,38.4h0c-5.3,1.8-8.3,7.6-6.4,12.9,1.4,4.1,5.3,6.9,9.7,6.9s2.1,0,3.2-.5c5.3-1.8,8.3-7.6,6.4-12.9-1.8-5.3-7.6-8.3-12.9-6.4ZM83.1,54.5c-3.4,1.1-7.4-.7-8.5-4.1s.7-7.4,4.1-8.5h0c.7-.2,1.4-.5,2.1-.5,2.8,0,5.5,1.8,6.4,4.6,1.1,3.4-.7,7.4-4.1,8.5ZM26.3,61.2c-3,.9-4.8,4.4-3.7,7.6.5,1.6,1.6,2.8,3,3.4.9.5,1.8.7,2.5.7s1.4,0,1.8-.2c1.6-.5,2.8-1.6,3.4-3s.9-3,.2-4.6c-1.1-3-4.4-4.8-7.6-3.7l.2-.2h.2ZM30.4,67.8c-.2.7-.7.9-1.4,1.1h-1.8c-.7-.2-.9-.7-1.1-1.4-.5-1.4.2-2.8,1.6-3.2h.7c.9,0,2.1.7,2.3,1.6v1.8h-.3ZM114.8,80c1.1-4.4,1.8-9,1.8-13.6,0-29.2-23.7-52.7-52.7-52.7S11.4,37.5,11.4,66.5s23.7,52.7,52.7,52.7,24.8-4.8,34-12.4c2.8,2.1,6,3.2,9.4,3.2,8.7,0,15.9-7.1,15.9-15.9s-3.4-11.3-8.5-14h0ZM110.5,50.1c1.8,5.1,2.8,10.3,2.8,16.1s0,3,0,4.4c-1.6-2.5-3.4-5.7-4.6-8-2.5-5.1-.5-8.5,1.6-12,0,0,0-.2.2-.5ZM108.9,46c-.5.9-.9,1.8-1.6,2.8-2.3,3.7-5.3,8.5-1.8,15.4,1.8,3.9,5.5,9.9,6.9,12,0,.9-.5,1.6-.7,2.5-1.4-.5-2.8-.5-4.1-.5s-3.7.2-5.3.9c-.5-1.1-1.1-2.3-1.6-3.2-5.5-11.3-9-18.4,6-34,.9,1.4,1.6,2.8,2.3,4.4v-.2h-.1ZM64,17h.7c-2.5,2.1-4.6,4.4-6.7,6.2-5.3,5.3-9.7,9.4-15.6,11.5-6.2,2.1-12.2,1.8-17.2,1.1,9-11.5,23-18.9,38.9-18.9h0ZM22.9,39.1c2.5.2,5.5.7,8.7.7s7.8-.5,12-1.8c6.7-2.3,11.5-6.9,17-12.2,2.8-2.8,5.5-5.5,9.2-8.3,4.4.5,8.7,1.6,12.6,3.2-6.7,2.1-13.6,5.5-18.6,12.4-5.7,7.8-12.4,15.6-26,19.1-6,1.4-10.6.7-14.7.2-2.1-.2-3.9-.5-6-.5,1.4-4.4,3.4-8.5,6-12.4l-.2-.5h0ZM30.4,102.3c.5-4.8,4.6-14.7,12.2-15.9,6-.9,10.3-2.3,13.6-3.2,4.8-1.4,6.9-1.8,9.4-.7,1.6.9,2.8,2.5,2.5,4.1,0,2.8-2.8,5.5-7.6,7.6-9.7,4.4-13.8,10.6-12.2,18.4-6.7-2.3-12.6-6-17.7-10.6l-.2.2h0ZM57.3,110.1c-.7,1.6-.7,3.2-.5,4.8-1.6-.2-3.2-.5-4.8-.9-2.3-7.4.7-12.4,9.9-16.3,8.3-3.7,9.7-8.3,9.7-10.8s-1.6-6-4.6-7.4c-3.9-2.1-7.1-.9-12,.5-3.2.9-7.1,2.1-13.1,3-8,1.1-13.1,9.9-14.7,16.3-4.1-4.6-7.6-10.1-9.7-16.1,2.3-3.4,8-3.9,15.4-4.6,6.9-.7,15.4-1.4,23.7-5.3.9-.5,1.6-.7,2.5-1.1,8-3.7,12.2-5.3,16.1.7,3,4.4,5.7,6.7,8,8.3,1.4,1.1,2.5,1.8,3.2,3,.9,1.4,1.1,2.8.7,4.1-.7,2.1-3.7,6.2-16.1,10.3-2.8.9-11.5,5.1-13.8,11.3v.2h0ZM64,115.7h-3.4c-.5-1.4-.5-2.8,0-4.1,1.8-4.6,8.7-8.3,11.7-9.2,10.6-3.4,16.8-7.6,18.4-12.6.9-2.5.5-5.1-1.1-7.4-.9-1.6-2.3-2.5-3.9-3.7-2.1-1.6-4.6-3.4-7.4-7.6-5.7-8.5-12.9-5.3-20.5-1.8-.7.5-1.6.7-2.5,1.1-7.8,3.4-15.6,4.1-22.5,4.8-6.7.7-12.6,1.1-16.3,4.4-1.1-4.1-1.8-8.7-1.8-13.3s.5-7.6,1.4-11.3c2.1,0,4.1,0,6.4.5,2.5.2,5.1.7,7.8.7s5.1-.2,8-.9c14.5-3.4,22.1-12.4,27.8-20.2,5.3-7.4,13.1-10.1,20.7-12.2,7.1,3.9,13.3,9.2,17.7,15.9-17.5,17.9-12.9,27.1-7.1,38.6.5.9,1.1,2.1,1.6,3.2-4.6,2.8-7.6,7.8-7.6,13.6s1.4,7.4,3.7,10.1c-8.5,7.1-19.5,11.5-31.5,11.5h.5,0ZM107.5,106.5c-6.9,0-12.4-5.5-12.4-12.4s5.5-12.4,12.4-12.4,12.4,5.5,12.4,12.4-5.5,12.4-12.4,12.4ZM98,112.2c-1.8,0-3.4,1.6-3.4,3.4s1.6,3.4,3.4,3.4,3.4-1.6,3.4-3.4-1.6-3.4-3.4-3.4ZM21.2,104.6c-1.8,0-3.4,1.6-3.4,3.4s1.6,3.4,3.4,3.4,3.4-1.6,3.4-3.4-1.6-3.4-3.4-3.4ZM101.5,17.7c1.8,0,3.4-1.6,3.4-3.4s-1.6-3.4-3.4-3.4-3.4,1.6-3.4,3.4,1.6,3.4,3.4,3.4ZM121.7,21.8c-1.8,0-3.4,1.6-3.4,3.4s1.6,3.4,3.4,3.4,3.4-1.6,3.4-3.4-1.6-3.4-3.4-3.4ZM14.6,35.4c1.8,0,3.4-1.6,3.4-3.4s-1.6-3.4-3.4-3.4-3.4,1.6-3.4,3.4,1.6,3.4,3.4,3.4Z"/>
        </g>
      </g>
    </g>
  </g>
</svg>