<?xml version="1.0" encoding="UTF-8"?>
<svg xmlns="http://www.w3.org/2000/svg" version="1.1" viewBox="0 0 128 128">
  <defs>
    <style>
      .cls-1 {
        fill: #c4a7e7;
      }
    </style>
  </defs>
  <!-- Generator: Adobe Illustrator 28.6.0, SVG Export Plug-In . SVG Version: 1.2.0 Build 709)  -->
  <g>
    <g id="Layer_1">
      <g id="Layer_1-2" data-name="Layer_1">
        <g id="Layer_1-2">
          <path class="cls-1" d="M25.3,29.5c1.1,0,1.9,0,3-.4,3-.9,5.5-2.8,7.2-5.3,1.7-2.8,2.1-5.8,1.3-8.9-1.3-5.1-6-8.9-11.3-8.9s-1.9,0-3,.4c-3,.9-5.5,2.8-7.2,5.3s-2.1,5.8-1.3,8.9c1.3,5.1,6,8.9,11.3,8.9ZM17.8,13.3c1.1-1.9,3-3.4,5.3-3.8.6,0,1.5-.2,2.1-.2,3.8,0,7.2,2.6,8.3,6.4.6,2.1.2,4.5-.9,6.4s-3,3.4-5.3,3.8c-.6,0-1.5.2-2.1.2-3.8,0-7.2-2.6-8.3-6.4-.6-2.1-.2-4.5.9-6.4ZM118.8,73.4c0-5.3-3.2-10.4-9.8-14.9h0c-.2-1.1-.6-1.9-1.1-3-.2-.6-.4-1.3-.6-1.9-.4-.9-.6-1.7-1.1-2.3,0,0,0-.4-.2-.6,1.7-7.5.6-13.6-3.2-17.5s-9.8-5.1-17.3-3.6c-4.7-2.6-9.6-4.3-14.9-5.1h-.2c-.6,0-1.3,0-1.9-.2h-11.1c-1.3,0-2.6.4-3.8.6-.4,0-.9,0-1.3.2-1.1,0-1.9.4-3,.6-.9.2-1.9.6-2.8.9-.4,0-.9.2-1.3.4-6.4,2.3-12.1,6-17.3,10.9-4,3.8-7.2,8.3-9.6,13-.2.6-.6,1.1-.9,1.7s-.6,1.3-.9,2.1c-.4.9-.6,1.7-1.1,2.8-6.6,4.3-10,9.4-10.2,14.7,0,5.3,3.4,10.4,9.8,14.9.9,2.8,1.9,5.3,3.2,7.9-1.7,7.7-.6,13.6,3.2,17.5,2.8,2.8,6.8,4.3,11.7,4.3s3.6,0,5.8-.6c1.3.6,2.6,1.3,3.8,1.9h0c1.5.6,2.8,1.1,4.3,1.7h0c1.5.4,3,.9,4.5,1.1h.2c1.5.2,3,.6,4.5.6h.4c1.5,0,3,.2,4.5.2h5.5c1.3,0,2.6-.4,3.8-.6.4,0,.9,0,1.3-.2,1.1,0,1.9-.4,3-.6.9-.2,1.7-.4,2.6-.9.4,0,1.1-.4,1.5-.4,6.4-2.3,12.1-6,17-10.9s8.9-11.1,11.5-17.5c0-.2,0-.4.2-.9,0-.4.4-.9.4-1.3,6.4-4,10-9.2,10.2-14.7l.4-.2h.3ZM14.4,81.7c-3.4-3-5.3-6.4-5.3-9.8s2.6-7.2,5.5-9.8c-.6,3.2-1.1,6.4-1.1,9.8s.2,6.6.9,9.8ZM100.5,35.3c2.3,2.3,3.4,6.2,3,10.7-.2-.4-.4-.6-.6-1.1-.4-.6-1.1-1.5-1.5-2.1-.4-.4-.9-1.1-1.3-1.5-.6-.9-1.3-1.5-1.9-2.3,0-.2-.4-.4-.6-.6-2.3-2.3-4.9-4.5-7.5-6.4,3.8-.2,7.9.4,10.7,3.2l-.2.2h0ZM18.2,84.7c-1.9-6.8-2.1-13.8-.9-20.9v-.6c0-.9.4-1.5.6-2.3,0-.6.4-1.5.6-2.1,0-.2.2-.6.2-.9,5.8-16.4,20.5-28.8,38.3-30.7h.4c1.5,0,3-.2,4.5-.2h5.1c.6,0,1.1,0,1.7.2,1.1,0,2.1.2,3,.4.4,0,.6,0,1.1.2,1.3.2,2.3.6,3.4.9h.2c11.1,3.6,20.5,11.7,25.8,21.9-1.1,4-3,8.7-5.5,13.4-1.3-.6-2.6-.9-4-.9s-1.7,0-2.6.2c-5.5,1.5-8.7,7-7.5,12.4.4,1.7,1.3,3.2,2.3,4.5-2.3,2.8-4.7,5.3-7.5,7.9-2.3,2.1-4.5,4.3-6.8,6.2-3,0-6,.2-9.2.2s-8.9-.4-13.4-.9c-6-.9-11.5-1.9-16.6-3.4-5.5-1.7-10-3.8-13.6-6l.2.4h.2ZM99.8,72.1c.9,3.8-1.3,7.7-5.1,8.5-3.8.9-7.7-1.5-8.5-5.1-.9-3.8,1.3-7.7,5.1-8.5.6,0,1.1-.2,1.7-.2,3.2,0,6,2.1,6.8,5.3ZM24.2,109.8c-2.8-2.8-3.2-7-3-10.9.9,1.3,1.7,2.6,2.6,3.6l.2.2c1.1,1.3,2.1,2.6,3.2,3.8h0c1.1,1.1,2.3,2.1,3.4,3.2h0c1.3,1.1,2.3,1.9,3.6,2.8h0c-4.7.2-8.3-.9-10.7-3.2l.6.4h.1ZM39.8,112.2c-.4-.2-.9-.6-1.5-.9-.6-.4-1.3-.6-1.9-1.1-.9-.6-1.9-1.3-2.8-2.1-.2-.2-.6-.4-.9-.6-1.1-1.1-2.3-2.1-3.4-3.2s-2.1-2.3-3-3.4h0c-2.8-3.6-5.1-7.5-6.6-11.5,3.2,1.7,7,3.2,11.3,4.7,5.3,1.7,11.1,2.8,17.3,3.6,4.5.6,9.2.9,13.6.9h4.9c-4.5,3.4-8.7,6.2-13.2,8.5-5.1,2.6-9.8,4.5-14.1,5.3l.2-.2h.1ZM67.3,117.9h-.4c-1.5,0-3,.2-4.5.2h-4.9c-.6,0-1.3,0-2.1-.2-.9,0-1.7-.2-2.3-.4-.6,0-1.3-.2-1.9-.4-.9,0-1.7-.4-2.6-.6-.6,0-1.1-.4-1.7-.6-.9-.2-1.7-.6-2.3-.9h-.4c3.6-1.1,7.2-2.6,11.3-4.7,4.9-2.6,9.8-5.8,14.7-9.6.9-.6,1.7-1.3,2.3-1.9,12.6-.9,23.6-3.6,32-7.7-6.4,14.9-20.5,25.6-37.1,27.5v-.6h0ZM106,85.7c-7,4.3-17.5,7.2-29.4,8.7,1.3-1.1,2.6-2.3,3.6-3.4,2.8-2.6,5.3-5.3,7.7-8.1,1.5.9,3.2,1.3,5.1,1.3s1.7,0,2.6-.2c5.5-1.5,8.7-7,7.5-12.4-.4-2.1-1.7-3.8-3.2-5.1,2.1-3.8,3.8-7.5,4.9-10.9,1.1,2.8,1.9,5.5,2.6,8.3h0c.2,1.3.4,2.6.6,3.8v5.1h0c0,4.5-.9,8.7-1.9,12.6v.2h0ZM110.1,83v-.9c.2-1.3.4-2.6.6-3.8v-.4c0-1.5.2-3,.2-4.5h0v-4.9c0-1.5-.2-2.8-.6-4.3v-.6c3,2.6,5.3,6,5.3,9.8s-2.1,6.8-5.5,9.6ZM5.7,91.1c-.6.4-1.1,1.3-1.3,2.1,0,.9,0,1.7.6,2.3.6.9,1.5,1.3,2.6,1.3s1.3,0,1.9-.6c.6-.4,1.1-1.3,1.3-2.1,0-.9,0-1.7-.6-2.3-1.1-1.3-3-1.7-4.5-.6h0ZM72.2,41c.6,0,1.3,0,1.9-.6,1.5-1.1,1.7-3,.6-4.5-1.1-1.3-3-1.7-4.5-.6-.6.4-1.1,1.3-1.3,2.1,0,.9,0,1.7.6,2.3.6.9,1.5,1.3,2.6,1.3h.1ZM50,88.9c.9,0,1.5-.2,2.1-.9,1.3-1.1,1.5-3.2.4-4.5s-3.2-1.5-4.5-.4c-.6.6-1.1,1.3-1.1,2.1s0,1.7.6,2.3,1.5,1.1,2.3,1.1v.2h.2ZM114.3,49.1c.6,0,1.1,0,1.7-.4,1.5-.9,1.9-2.8,1.1-4.3s-3-1.9-4.3-1.1c-.6.4-1.3,1.1-1.5,1.9,0,.9,0,1.7.4,2.3.6.9,1.7,1.5,2.8,1.5h-.2ZM115.2,96.2c-1.1.4-2.1,1.5-2.6,2.8s-.4,2.6,0,3.6c.9,1.7,2.6,2.8,4.5,2.8s1.3,0,1.9-.4c1.1-.4,2.1-1.5,2.6-2.8s.4-2.6,0-3.6c-1.1-2.3-4-3.4-6.4-2.3h0ZM118.8,101.1c0,.4-.4.6-.9.9-.9.4-1.7,0-2.1-.9v-1.3c0-.4.4-.6.9-.9h.6c.6,0,1.3.4,1.5.9v1.3ZM124.3,28c-1.5-2.6-4.9-3.4-7.5-1.9-1.3.9-2.1,1.9-2.6,3.4s0,3,.6,4c1.1,1.7,2.8,2.6,4.7,2.6s1.9-.2,2.8-.9c1.3-.9,2.1-1.9,2.6-3.4s0-3-.6-4v.2ZM121.8,31.4c0,.6-.4,1.1-1.1,1.5-1.1.6-2.6.2-3.2-.9-.2-.4-.4-1.1-.2-1.7,0-.6.4-1.1,1.1-1.5.4,0,.9-.4,1.1-.4.9,0,1.5.4,1.9,1.1.2.4.4,1.1.2,1.7,0,0,.2.2.2.2ZM42.3,79.8c1.5-1.3,2.6-3.2,2.8-5.3,0-2.1-.4-4-1.9-5.5-1.5-1.7-3.6-2.8-6-2.8s-3.6.6-5.1,1.9c-3.2,2.8-3.6,7.7-.9,10.9,1.5,1.7,3.6,2.8,6,2.8s3.6-.6,4.9-1.9h.2ZM33.8,76.8c-1.7-1.9-1.5-4.7.4-6.4.9-.6,1.9-1.1,3-1.1s2.6.6,3.4,1.5c.9.9,1.1,2.1,1.1,3.2s-.6,2.3-1.5,3c-1.9,1.5-4.9,1.3-6.4-.4v.2Z"/>
        </g>
      </g>
    </g>
  </g>
</svg>