<svg xmlns="http://www.w3.org/2000/svg" xmlns:xlink="http://www.w3.org/1999/xlink" version="1.1" x="0px" y="0px" viewBox="0 0 100 125" enable-background="new 0 0 100 100" xml:space="preserve"><path d="M26.005,65.43c-1.412,0-2.562,1.148-2.562,2.561s1.149,2.561,2.562,2.561s2.561-1.148,2.561-2.561  S27.417,65.43,26.005,65.43z M26.005,69.051c-0.586,0-1.062-0.477-1.062-1.061c0-0.586,0.476-1.061,1.062-1.061  c0.585,0,1.061,0.475,1.061,1.061C27.065,68.574,26.59,69.051,26.005,69.051z M30.69,32.657c1.999,0,3.625-1.626,3.625-3.625  s-1.626-3.625-3.625-3.625s-3.625,1.626-3.625,3.625S28.691,32.657,30.69,32.657z M30.69,26.907c1.172,0,2.125,0.953,2.125,2.125  s-0.953,2.125-2.125,2.125s-2.125-0.953-2.125-2.125S29.519,26.907,30.69,26.907z M55.979,39.549L55.979,39.549  c-2.306,0.771-3.555,3.273-2.783,5.58c0.617,1.843,2.341,3.011,4.186,3.011c0.462,0,0.933-0.073,1.395-0.228  c2.306-0.771,3.554-3.275,2.783-5.581C60.788,40.026,58.292,38.778,55.979,39.549z M58.3,46.489  c-1.519,0.51-3.172-0.314-3.682-1.836c-0.508-1.521,0.316-3.173,1.837-3.682h0.001c0.305-0.102,0.614-0.15,0.92-0.15  c1.217,0,2.354,0.771,2.762,1.986C60.646,44.329,59.821,45.981,58.3,46.489z M33.59,49.385c-1.345,0.449-2.073,1.91-1.624,3.255  c0.219,0.652,0.678,1.18,1.293,1.486c0.361,0.18,0.752,0.271,1.145,0.271c0.275,0,0.551-0.045,0.818-0.135  c0.651-0.217,1.179-0.676,1.486-1.291c0.307-0.615,0.355-1.313,0.137-1.963C36.394,49.665,34.935,48.936,33.59,49.385z   M35.364,52.303c-0.127,0.256-0.347,0.447-0.617,0.539c-0.272,0.088-0.563,0.07-0.82-0.059c-0.256-0.127-0.447-0.348-0.537-0.617  c-0.188-0.563,0.115-1.172,0.676-1.359c0.113-0.037,0.227-0.055,0.339-0.055c0.448,0,0.868,0.285,1.019,0.734  C35.514,51.756,35.493,52.047,35.364,52.303z M72.146,57.576c0.511-1.893,0.802-3.875,0.802-5.926  c0-12.652-10.292-22.945-22.943-22.945S27.06,38.999,27.06,51.65c0,12.65,10.293,22.943,22.944,22.943  c5.636,0,10.788-2.061,14.786-5.443c1.155,0.875,2.588,1.4,4.145,1.4c3.797,0,6.887-3.09,6.887-6.887  C75.821,61.025,74.329,58.732,72.146,57.576z M70.25,44.648c0.763,2.198,1.197,4.548,1.197,7.002c0,0.652-0.04,1.295-0.099,1.934  c-0.658-1.119-1.459-2.516-1.953-3.517c-1.09-2.203-0.2-3.668,0.741-5.219C70.178,44.78,70.21,44.715,70.25,44.648z M69.533,42.842  c-0.168,0.382-0.415,0.795-0.679,1.228c-0.953,1.569-2.259,3.72-0.804,6.663c0.831,1.682,2.436,4.35,2.951,5.197  c-0.076,0.371-0.167,0.734-0.263,1.096c-0.576-0.156-1.18-0.248-1.805-0.248c-0.792,0-1.55,0.141-2.258,0.389  c-0.232-0.484-0.465-0.973-0.691-1.428c-2.441-4.906-3.908-7.953,2.588-14.765C68.923,41.579,69.243,42.202,69.533,42.842z   M50.004,30.206c0.104,0,0.206,0.015,0.311,0.016c-1.061,0.945-2.015,1.867-2.873,2.707c-2.349,2.299-4.203,4.115-6.813,4.987  c-2.717,0.907-5.286,0.784-7.488,0.534C37.067,33.442,43.159,30.206,50.004,30.206z M32.123,39.839  c1.133,0.144,2.423,0.29,3.831,0.29c1.606,0,3.353-0.189,5.15-0.791c2.937-0.982,4.998-3,7.387-5.338  c1.201-1.176,2.448-2.391,3.953-3.645c1.918,0.219,3.756,0.695,5.487,1.387c-2.915,0.91-5.912,2.375-8.104,5.351  c-2.508,3.403-5.441,6.844-11.258,8.255c-2.576,0.625-4.627,0.348-6.436,0.104c-0.887-0.121-1.74-0.222-2.59-0.223  C30.151,43.3,31.028,41.492,32.123,39.839z M35.444,67.348c0.162-2.059,1.965-6.43,5.277-6.938c2.619-0.4,4.494-0.959,5.863-1.369  c2.076-0.617,2.964-0.848,4.088-0.279c0.719,0.365,1.17,1.08,1.149,1.824c-0.033,1.215-1.241,2.434-3.315,3.344  c-4.24,1.865-6.029,4.561-5.342,8.025C40.263,70.975,37.644,69.389,35.444,67.348z M47.082,70.711  c-0.274,0.705-0.325,1.424-0.187,2.131c-0.697-0.102-1.384-0.236-2.059-0.404c-0.998-3.188,0.33-5.4,4.273-7.135  c3.597-1.58,4.183-3.607,4.212-4.676c0.036-1.32-0.738-2.578-1.972-3.203c-1.703-0.861-3.091-0.447-5.195,0.18  c-1.4,0.418-3.145,0.939-5.66,1.324c-3.543,0.543-5.704,4.311-6.351,7.105c-1.824-2.01-3.269-4.361-4.229-6.951  c1.023-1.482,3.518-1.734,6.658-2.029c2.992-0.281,6.715-0.631,10.307-2.252c0.367-0.166,0.727-0.332,1.076-0.496  c3.502-1.631,5.266-2.305,7.009,0.254c1.326,1.943,2.547,2.885,3.527,3.641c0.59,0.455,1.056,0.814,1.365,1.268  c0.416,0.613,0.516,1.213,0.304,1.832c-0.314,0.926-1.648,2.742-7.039,4.512C51.895,66.213,48.149,67.979,47.082,70.711z   M50.004,73.094c-0.513,0-1.015-0.041-1.519-0.078c-0.229-0.582-0.239-1.162-0.006-1.758c0.785-2.012,3.839-3.605,5.11-4.021  c4.583-1.504,7.271-3.338,7.991-5.453c0.364-1.066,0.196-2.158-0.483-3.16c-0.443-0.652-1.021-1.098-1.69-1.613  c-0.896-0.689-2.012-1.549-3.202-3.297c-2.54-3.722-5.619-2.289-8.882-0.768c-0.346,0.16-0.698,0.324-1.06,0.488  c-3.364,1.518-6.8,1.842-9.831,2.125c-2.913,0.275-5.485,0.541-7.053,1.898c-0.521-1.85-0.82-3.793-0.82-5.807  c0-1.696,0.219-3.338,0.592-4.921c0.863-0.042,1.764,0.07,2.781,0.209c1.051,0.142,2.177,0.294,3.441,0.294  c1.071,0,2.242-0.109,3.549-0.427c6.305-1.529,9.558-5.355,12.111-8.822c2.348-3.186,5.694-4.434,8.996-5.275  c3.105,1.65,5.763,4.036,7.728,6.932c-7.567,7.803-5.601,11.771-3.115,16.767c0.223,0.449,0.453,0.928,0.683,1.404  c-1.962,1.215-3.276,3.381-3.276,5.854c0,1.689,0.614,3.236,1.629,4.438C59.961,71.199,55.21,73.094,50.004,73.094z M68.935,69.051  c-2.97,0-5.386-2.416-5.386-5.387s2.416-5.387,5.386-5.387c2.971,0,5.387,2.416,5.387,5.387S71.905,69.051,68.935,69.051z   M64.842,71.596c-0.818,0-1.484,0.666-1.484,1.484s0.666,1.484,1.484,1.484s1.484-0.666,1.484-1.484S65.66,71.596,64.842,71.596z   M31.425,68.316c-0.818,0-1.484,0.666-1.484,1.484s0.666,1.484,1.484,1.484s1.484-0.666,1.484-1.484S32.243,68.316,31.425,68.316z   M66.311,30.516c0.818,0,1.484-0.666,1.484-1.484s-0.666-1.484-1.484-1.484s-1.484,0.666-1.484,1.484S65.492,30.516,66.311,30.516z   M75.071,32.333c-0.818,0-1.484,0.666-1.484,1.484s0.666,1.484,1.484,1.484s1.484-0.666,1.484-1.484S75.89,32.333,75.071,32.333z   M28.546,38.151c0.818,0,1.484-0.666,1.484-1.484s-0.666-1.484-1.484-1.484s-1.484,0.666-1.484,1.484S27.728,38.151,28.546,38.151z"/><text x="0" y="115" fill="#000000" font-size="5px" font-weight="bold" font-family="'Helvetica Neue', Helvetica, Arial-Unicode, Arial, Sans-serif">Created by Sergey Demushkin</text><text x="0" y="120" fill="#000000" font-size="5px" font-weight="bold" font-family="'Helvetica Neue', Helvetica, Arial-Unicode, Arial, Sans-serif">from the Noun Project</text></svg>