<?xml version="1.0" encoding="UTF-8"?>
<svg xmlns="http://www.w3.org/2000/svg" version="1.1" viewBox="0 0 128 128">
  <defs>
    <style>
      .cls-1 {
        fill: #c4a7e7;
      }
    </style>
  </defs>
  <!-- Generator: Adobe Illustrator 28.6.0, SVG Export Plug-In . SVG Version: 1.2.0 Build 709)  -->
  <g>
    <g id="Layer_1">
      <g id="Layer_1-2" data-name="Layer_1">
        <g id="Layer_1-2">
          <path class="cls-1" d="M81.4,61c0,8.1,6.5,14.6,14.6,14.6s14.6-6.5,14.6-14.6-6.5-14.6-14.6-14.6-14.6,6.5-14.6,14.6ZM106.9,61c0,6-4.9,11.1-11.1,11.1s-11.1-4.9-11.1-11.1,4.9-11.1,11.1-11.1,11.1,4.9,11.1,11.1ZM68.6,48.2c0-10.7-8.8-19.5-19.5-19.5s-19.5,8.8-19.5,19.5,8.8,19.5,19.5,19.5,19.5-8.8,19.5-19.5ZM49.1,64c-8.8,0-16-7.2-16-16s7.2-16,16-16,16,7.2,16,16-7.2,16-16,16ZM66.3,9.9c-29.2,0-53.1,23.9-53.1,53.1s23.9,53.1,53.1,53.1,53.1-23.9,53.1-53.1S95.5,9.9,66.3,9.9ZM66.3,112.9c-27.4,0-49.6-22.3-49.6-49.6S38.9,13.7,66.3,13.7s49.6,22.3,49.6,49.6-22.3,49.6-49.6,49.6ZM85.3,38.9c2.8,0,5.3-2.3,5.3-5.3s-2.3-5.3-5.3-5.3-5.3,2.3-5.3,5.3,2.3,5.3,5.3,5.3ZM85.3,32c.9,0,1.9.7,1.9,1.9s-.7,1.9-1.9,1.9-1.9-.7-1.9-1.9.7-1.9,1.9-1.9ZM27.8,108.1c-1.9,0-3.5,1.6-3.5,3.5s1.6,3.5,3.5,3.5,3.5-1.6,3.5-3.5-1.6-3.5-3.5-3.5ZM12.9,102c-2.8,0-5.3,2.3-5.3,5.3s2.3,5.3,5.3,5.3,5.3-2.3,5.3-5.3-2.3-5.3-5.3-5.3ZM12.9,109c-.9,0-1.9-.7-1.9-1.9s.7-1.9,1.9-1.9,1.9.7,1.9,1.9-.7,1.9-1.9,1.9ZM10.1,38.9c0-1.9-1.6-3.5-3.5-3.5s-3.5,1.6-3.5,3.5,1.6,3.5,3.5,3.5,3.5-1.6,3.5-3.5ZM31.3,16.2c1.9,0,3.5-1.6,3.5-3.5s-1.6-3.5-3.5-3.5-3.5,1.6-3.5,3.5,1.6,3.5,3.5,3.5ZM17.6,21.5c2.8,0,5.3-2.3,5.3-5.3s-2.3-5.3-5.3-5.3-5.3,2.3-5.3,5.3,2.3,5.3,5.3,5.3ZM17.6,14.6c.9,0,1.9.7,1.9,1.9s-.7,1.9-1.9,1.9-1.9-.7-1.9-1.9.7-1.9,1.9-1.9ZM36.6,76.1c-3.2,0-6,2.6-6,6s2.6,6,6,6,6-2.6,6-6-2.6-6-6-6ZM36.6,84.4c-1.4,0-2.6-1.2-2.6-2.6s1.2-2.6,2.6-2.6,2.6,1.2,2.6,2.6-1.2,2.6-2.6,2.6ZM116.9,28c4.2,0,7.4-3.2,7.4-7.4s-3.2-7.4-7.4-7.4-7.4,3.2-7.4,7.4,3.2,7.4,7.4,7.4ZM116.9,16.7c2.1,0,3.9,1.9,3.9,3.9s-1.9,3.9-3.9,3.9-3.9-1.9-3.9-3.9,1.9-3.9,3.9-3.9ZM65.1,87.9c-5.8,0-10.4,4.6-10.4,10.4s4.6,10.4,10.4,10.4,10.4-4.6,10.4-10.4-4.6-10.4-10.4-10.4ZM65.1,105.1c-3.7,0-7-3-7-7s3-7,7-7,7,3,7,7-3,7-7,7ZM119.4,30.1c-1.9,0-3.5,1.6-3.5,3.5s1.6,3.5,3.5,3.5,3.5-1.6,3.5-3.5-1.6-3.5-3.5-3.5ZM97.6,112.9c-1.9,0-3.5,1.6-3.5,3.5s1.6,3.5,3.5,3.5,3.5-1.6,3.5-3.5-1.6-3.5-3.5-3.5ZM114.5,108.1c-1.9,0-3.5,1.6-3.5,3.5s1.6,3.5,3.5,3.5,3.5-1.6,3.5-3.5-1.6-3.5-3.5-3.5ZM101.1,15.1c1.9,0,3.5-1.6,3.5-3.5s-1.6-3.5-3.5-3.5-3.5,1.6-3.5,3.5,1.6,3.5,3.5,3.5ZM61.9,25.5c1.9,0,3.5-1.6,3.5-3.5s-1.6-3.5-3.5-3.5-3.5,1.6-3.5,3.5,1.6,3.5,3.5,3.5ZM73.7,65.9c-1.9,0-3.5,1.6-3.5,3.5s1.6,3.5,3.5,3.5,3.5-1.6,3.5-3.5-1.6-3.5-3.5-3.5ZM24.5,61.4c-1.9,0-3.5,1.6-3.5,3.5s1.6,3.5,3.5,3.5,3.5-1.6,3.5-3.5-1.6-3.5-3.5-3.5ZM92.5,91.1c-1.9,0-3.5,1.6-3.5,3.5s1.6,3.5,3.5,3.5,3.5-1.6,3.5-3.5-1.6-3.5-3.5-3.5Z"/>
        </g>
      </g>
    </g>
  </g>
</svg>