<?xml version="1.0" encoding="UTF-8"?>
<svg id="Layer_2" data-name="Layer 2" xmlns="http://www.w3.org/2000/svg" viewBox="0 0 63.03 63.1" fill="currentColor">
  <defs>
    <style>
      .cls-1 {
        fill: #C4A7E7;
        stroke-width: 0px;
      }
    </style>
  </defs>
  <g id="Layer_1-2" data-name="Layer 1">
    <g>
      <path class="cls-1" d="M53.83,9.2C47.83,3.2,39.92,0,31.53,0S15.13,3.3,9.23,9.2c-12.3,12.3-12.3,32.3,0,44.7,6,6,13.9,9.2,22.3,9.2s16.4-3.3,22.3-9.2,9.2-13.9,9.2-22.3c.1-8.5-3.2-16.4-9.2-22.4ZM52.42,52.4c-5.6,5.6-13,8.7-20.9,8.7s-15.3-3.1-20.9-8.7C-.88,40.9-.88,22.1,10.62,10.6,16.22,5,23.62,1.9,31.52,1.9s15.3,3.1,20.9,8.7c5.6,5.6,8.7,13,8.7,20.9s-3.1,15.4-8.7,20.9Z"/>
      <polygon class="cls-1" points="40.13 31.5 38.72 30.1 27.13 18.5 25.72 19.9 37.33 31.5 26.33 42.5 27.72 43.9 38.72 32.9 40.13 31.5"/>
    </g>
  </g>
</svg>